<svg width="0" height="0" class="hidden">
  <symbol fill="none" xmlns="http://www.w3.org/2000/svg" viewBox="0 0 20 20" id="eye">
    <g clip-path="url(#clip0_72_19363)">
      <path d="M0.833374 9.99998C0.833374 9.99998 4.16671 3.33331 10 3.33331C15.8334 3.33331 19.1667 9.99998 19.1667 9.99998C19.1667 9.99998 15.8334 16.6666 10 16.6666C4.16671 16.6666 0.833374 9.99998 0.833374 9.99998Z" stroke="#121417" stroke-width="2" stroke-linecap="round" stroke-linejoin="round"></path>
      <path d="M10 12.5C11.3807 12.5 12.5 11.3807 12.5 10C12.5 8.61929 11.3807 7.5 10 7.5C8.61929 7.5 7.5 8.61929 7.5 10C7.5 11.3807 8.61929 12.5 10 12.5Z" stroke="#121417" stroke-width="2" stroke-linecap="round" stroke-linejoin="round"></path>
    </g>
    <defs>
      <clipPath id="clip0_72_19363">
        <rect width="20" height="20" fill="white"></rect>
      </clipPath>
    </defs>
  </symbol>
  <symbol fill="none" xmlns="http://www.w3.org/2000/svg" viewBox="0 0 20 20" id="switch">
    <path d="M3.33337 10H16.6667M16.6667 10L13.3334 6.66669M16.6667 10L13.3334 13.3334" stroke="#85AA9F" stroke-width="1.5" stroke-linecap="round" stroke-linejoin="round"></path>
  </symbol>
  <symbol fill="none" xmlns="http://www.w3.org/2000/svg" viewBox="0 0 20 20" id="plus">
    <path d="M10 4.16669V15.8334" stroke="#85AA9F" stroke-width="1.5" stroke-linecap="round" stroke-linejoin="round"></path>
    <path d="M4.16663 10H15.8333" stroke="#85AA9F" stroke-width="1.5" stroke-linecap="round" stroke-linejoin="round"></path>
  </symbol>
  <symbol fill="none" xmlns="http://www.w3.org/2000/svg" viewBox="0 0 20 20" id="eye-off">
    <g clip-path="url(#clip0_72_19357)">
      <path d="M14.95 14.95C13.5255 16.0358 11.791 16.6374 10 16.6667C4.16671 16.6667 0.833374 10 0.833374 10C1.86995 8.06825 3.30765 6.38051 5.05004 5.05M8.25004 3.53333C8.82365 3.39907 9.41093 3.33195 10 3.33333C15.8334 3.33333 19.1667 10 19.1667 10C18.6609 10.9463 18.0576 11.8373 17.3667 12.6583M11.7667 11.7667C11.5378 12.0123 11.2618 12.2093 10.9552 12.3459C10.6485 12.4826 10.3175 12.556 9.98178 12.562C9.64611 12.5679 9.31268 12.5061 9.00138 12.3804C8.69009 12.2547 8.40731 12.0675 8.16991 11.8301C7.93252 11.5927 7.74537 11.31 7.61963 10.9987C7.4939 10.6874 7.43215 10.3539 7.43807 10.0183C7.44399 9.68258 7.51747 9.35154 7.65411 9.04487C7.79075 8.73821 7.98775 8.46221 8.23338 8.23333" stroke="#121417" stroke-width="2" stroke-linecap="round" stroke-linejoin="round"></path>
      <path d="M0.833374 0.833313L19.1667 19.1666" stroke="#121417" stroke-width="2" stroke-linecap="round" stroke-linejoin="round"></path>
    </g>
    <defs>
      <clipPath id="clip0_72_19357">
        <rect width="20" height="20" fill="white"></rect>
      </clipPath>
    </defs>
  </symbol>
  <symbol fill="none" xmlns="http://www.w3.org/2000/svg" viewBox="0 0 20 20" id="trash">
    <path d="M7.5 2.5H12.5M8.33333 8.75V12.9167M11.6667 8.75V12.9167" stroke="#121417" stroke-opacity="0.5" stroke-width="1.8" stroke-linecap="round" stroke-linejoin="round"></path>
    <path d="M2.5 5H17.5M15.8333 5L15.2489 13.7661C15.1612 15.0813 15.1174 15.7389 14.8333 16.2375C14.5833 16.6765 14.206 17.0294 13.7514 17.2497C13.235 17.5 12.5759 17.5 11.2578 17.5H8.74221C7.42409 17.5 6.76503 17.5 6.24861 17.2497C5.79396 17.0294 5.41674 16.6765 5.16665 16.2375C4.88259 15.7389 4.83875 15.0813 4.75107 13.7661L4.16667 5" stroke="#121417" stroke-opacity="0.5" stroke-width="1.8" stroke-linecap="round" stroke-linejoin="round"></path>
  </symbol>
  <symbol fill="none" xmlns="http://www.w3.org/2000/svg" viewBox="0 0 20 20" id="edit">
    <path d="M2.39662 15.0964C2.43491 14.7518 2.45405 14.5795 2.50618 14.4185C2.55243 14.2756 2.61778 14.1396 2.70045 14.0142C2.79363 13.8729 2.91621 13.7504 3.16136 13.5052L14.1666 2.49999C15.0871 1.57951 16.5795 1.57951 17.4999 2.49999C18.4204 3.42046 18.4204 4.91285 17.4999 5.83332L6.49469 16.8386C6.24954 17.0837 6.12696 17.2063 5.98566 17.2995C5.86029 17.3821 5.72433 17.4475 5.58146 17.4937C5.42042 17.5459 5.24813 17.565 4.90356 17.6033L2.08325 17.9167L2.39662 15.0964Z" stroke="#121417" stroke-opacity="0.5" stroke-width="1.8" stroke-linecap="round" stroke-linejoin="round"></path>
  </symbol>
  <symbol fill="none" xmlns="http://www.w3.org/2000/svg" viewBox="0 0 24 24" id="switch-right">
    <path d="M20 17H4M4 17L8 13M4 17L8 21" stroke="#85AA9F" stroke-width="1.5" stroke-linecap="round" stroke-linejoin="round"></path>
    <path d="M4 7H20M20 7L16 3M20 7L16 11" stroke="#85AA9F" stroke-width="1.5" stroke-linecap="round" stroke-linejoin="round"></path>
  </symbol>
</svg>