<svg width="0" height="0" class="hidden">
  <symbol fill="none" xmlns="http://www.w3.org/2000/svg" viewBox="0 0 20 20" id="edit">
    <path d="M2.39662 15.0964C2.43491 14.7518 2.45405 14.5795 2.50618 14.4185C2.55243 14.2756 2.61778 14.1396 2.70045 14.0142C2.79363 13.8729 2.91621 13.7504 3.16136 13.5052L14.1666 2.49999C15.0871 1.57951 16.5795 1.57951 17.4999 2.49999C18.4204 3.42046 18.4204 4.91285 17.4999 5.83332L6.49469 16.8386C6.24954 17.0837 6.12696 17.2063 5.98566 17.2995C5.86029 17.3821 5.72433 17.4475 5.58146 17.4937C5.42042 17.5459 5.24813 17.565 4.90356 17.6033L2.08325 17.9167L2.39662 15.0964Z" stroke="#121417" stroke-opacity="0.5" stroke-width="1.8" stroke-linecap="round" stroke-linejoin="round"></path>
  </symbol>
  <symbol fill="none" xmlns="http://www.w3.org/2000/svg" viewBox="0 0 16 16" id="error-warning-fill">
    <g clip-path="url(#clip0_7600_1210)">
      <path d="M7.99992 14.6667C4.31792 14.6667 1.33325 11.682 1.33325 8C1.33325 4.318 4.31792 1.33333 7.99992 1.33333C11.6819 1.33333 14.6666 4.318 14.6666 8C14.6666 11.682 11.6819 14.6667 7.99992 14.6667ZM7.33325 10V11.3333H8.66659V10H7.33325ZM7.33325 4.66667V8.66667H8.66659V4.66667H7.33325Z" fill="#D80027"></path>
    </g>
    <defs>
      <clipPath id="clip0_7600_1210">
        <rect width="16" height="16" fill="white"></rect>
      </clipPath>
    </defs>
  </symbol>
  <symbol fill="none" xmlns="http://www.w3.org/2000/svg" viewBox="0 0 20 20" id="eye">
    <g clip-path="url(#clip0_72_19363)">
      <path d="M0.833374 9.99998C0.833374 9.99998 4.16671 3.33331 10 3.33331C15.8334 3.33331 19.1667 9.99998 19.1667 9.99998C19.1667 9.99998 15.8334 16.6666 10 16.6666C4.16671 16.6666 0.833374 9.99998 0.833374 9.99998Z" stroke="#121417" stroke-width="2" stroke-linecap="round" stroke-linejoin="round"></path>
      <path d="M10 12.5C11.3807 12.5 12.5 11.3807 12.5 10C12.5 8.61929 11.3807 7.5 10 7.5C8.61929 7.5 7.5 8.61929 7.5 10C7.5 11.3807 8.61929 12.5 10 12.5Z" stroke="#121417" stroke-width="2" stroke-linecap="round" stroke-linejoin="round"></path>
    </g>
    <defs>
      <clipPath id="clip0_72_19363">
        <rect width="20" height="20" fill="white"></rect>
      </clipPath>
    </defs>
  </symbol>
  <symbol fill="none" xmlns="http://www.w3.org/2000/svg" viewBox="0 0 20 20" id="eye-off">
    <g clip-path="url(#clip0_72_19357)">
      <path d="M14.95 14.95C13.5255 16.0358 11.791 16.6374 10 16.6667C4.16671 16.6667 0.833374 10 0.833374 10C1.86995 8.06825 3.30765 6.38051 5.05004 5.05M8.25004 3.53333C8.82365 3.39907 9.41093 3.33195 10 3.33333C15.8334 3.33333 19.1667 10 19.1667 10C18.6609 10.9463 18.0576 11.8373 17.3667 12.6583M11.7667 11.7667C11.5378 12.0123 11.2618 12.2093 10.9552 12.3459C10.6485 12.4826 10.3175 12.556 9.98178 12.562C9.64611 12.5679 9.31268 12.5061 9.00138 12.3804C8.69009 12.2547 8.40731 12.0675 8.16991 11.8301C7.93252 11.5927 7.74537 11.31 7.61963 10.9987C7.4939 10.6874 7.43215 10.3539 7.43807 10.0183C7.44399 9.68258 7.51747 9.35154 7.65411 9.04487C7.79075 8.73821 7.98775 8.46221 8.23338 8.23333" stroke="#121417" stroke-width="2" stroke-linecap="round" stroke-linejoin="round"></path>
      <path d="M0.833374 0.833313L19.1667 19.1666" stroke="#121417" stroke-width="2" stroke-linecap="round" stroke-linejoin="round"></path>
    </g>
    <defs>
      <clipPath id="clip0_72_19357">
        <rect width="20" height="20" fill="white"></rect>
      </clipPath>
    </defs>
  </symbol>
  <symbol fill="none" xmlns="http://www.w3.org/2000/svg" viewBox="0 0 182 36" id="logo-mobile">
    <circle cx="18" cy="18" r="18" fill="#85AA9F"></circle>
    <path fill-rule="evenodd" clip-rule="evenodd" d="M17.9504 16.6667C23.2339 12.6817 23.4672 10.2667 17.9504 6C12.3284 10.3577 13.053 12.6675 17.9504 16.6667ZM16.6667 18.0504C12.6817 12.7669 10.2667 12.5337 6 18.0504C10.3577 23.6724 12.6675 22.9478 16.6667 18.0504ZM29.9998 18.0504C26.0149 12.7669 23.5998 12.5337 19.3331 18.0504C23.6908 23.6724 26.0006 22.9478 29.9998 18.0504ZM17.9504 29.9997C23.2339 26.0148 23.4672 23.5997 17.9504 19.333C12.3284 23.6907 13.053 26.0005 17.9504 29.9997Z" fill="#FCFCFC"></path>
    <path d="M56.23 24L52.144 11.4H54.628L57.706 21.534H57.868L60.946 11.4H63.43L59.326 24H56.23ZM68.2889 24.162C65.4089 24.162 63.3389 22.2 63.3389 19.446V19.194C63.3389 16.44 65.4089 14.478 68.2889 14.478H68.4329C71.3129 14.478 73.3829 16.44 73.3829 19.194V19.446C73.3829 22.2 71.3129 24.162 68.4329 24.162H68.2889ZM68.3069 22.398H68.4149C69.9449 22.398 71.0609 21.156 71.0609 19.41V19.23C71.0609 17.484 69.9629 16.242 68.4149 16.242H68.3069C66.7769 16.242 65.6789 17.484 65.6789 19.23V19.41C65.6789 21.156 66.7769 22.398 68.3069 22.398ZM79.7456 24.144C76.9196 24.144 74.9756 22.2 74.9756 19.446V19.158C74.9756 16.44 76.9916 14.496 79.7096 14.496H79.8176C81.6356 14.496 83.0216 15.324 83.8496 16.638L82.1936 17.736C81.6896 16.782 80.9156 16.278 79.8536 16.278H79.7996C78.2516 16.278 77.2976 17.376 77.2976 19.23V19.41C77.2976 21.192 78.3596 22.326 79.8896 22.326H79.9796C81.0596 22.326 81.8156 21.75 82.3016 20.868L83.9216 22.074C83.0576 23.352 81.6896 24.144 79.8716 24.144H79.7456ZM88.3916 24.18C86.4476 24.18 85.1156 23.046 85.1156 21.39V21.264C85.1156 19.266 87.0056 18.222 90.7676 18.222H91.5236V17.808C91.5236 16.89 90.8216 16.296 89.5796 16.296H89.5256C88.5536 16.296 87.4196 16.656 86.4836 17.25L85.5656 15.63C86.7176 14.91 88.1576 14.442 89.6516 14.442H89.7596C91.9916 14.442 93.6296 15.612 93.6296 17.844V22.074C93.6296 22.722 93.7736 23.388 93.9536 24H91.8296C91.7216 23.712 91.6316 23.298 91.5776 22.884C90.7856 23.676 89.6696 24.18 88.3916 24.18ZM88.8416 22.38C89.8856 22.38 90.8756 21.93 91.5236 21.228V19.662H90.8936C88.4276 19.662 87.2756 20.166 87.2756 21.156V21.228C87.2756 21.894 87.9056 22.38 88.8416 22.38ZM101.675 24.162C100.325 24.162 99.1545 23.64 98.3625 22.758C98.3265 23.172 98.2005 23.694 98.0925 24H96.3285V11.04H98.5605V15.702C99.3345 14.928 100.415 14.478 101.675 14.478H101.765C104.357 14.478 106.247 16.422 106.247 19.086V19.554C106.247 22.218 104.357 24.162 101.765 24.162H101.675ZM101.171 22.38H101.315C102.863 22.38 103.925 21.192 103.925 19.518V19.122C103.925 17.448 102.863 16.26 101.315 16.26H101.171C99.6225 16.26 98.5605 17.448 98.5605 19.122V19.518C98.5605 21.192 99.6225 22.38 101.171 22.38ZM108.549 24V11.4H113.355C115.839 11.4 117.549 12.678 117.549 14.55V14.676C117.549 15.756 117.081 16.62 116.037 17.286C117.423 17.862 118.179 18.996 118.179 20.382V20.49C118.179 22.614 116.487 24 113.877 24H108.549ZM110.817 16.692H113.301C114.507 16.692 115.227 16.044 115.227 15.072V14.964C115.227 14.028 114.543 13.434 113.337 13.434H110.817V16.692ZM110.817 21.966H113.751C115.029 21.966 115.821 21.318 115.821 20.292V20.202C115.821 19.14 115.011 18.474 113.715 18.474H110.817V21.966ZM123.49 24.18C121.348 24.18 120.178 22.902 120.178 20.634V14.64H122.41V20.166C122.41 21.498 122.986 22.236 124.228 22.236H124.264C125.74 22.236 126.712 21.246 126.712 19.662V14.64H128.944V24H127.18C127.054 23.64 126.928 23.01 126.91 22.596C126.1 23.568 124.912 24.18 123.526 24.18H123.49ZM132.741 13.182C131.967 13.182 131.427 12.696 131.427 11.994C131.427 11.292 131.967 10.77 132.741 10.77C133.533 10.77 134.091 11.292 134.091 11.994C134.091 12.696 133.533 13.182 132.741 13.182ZM131.643 24V14.64H133.875V24H131.643ZM136.74 24V11.04H138.972V24H136.74ZM145.64 24.162C143.03 24.162 141.158 22.218 141.158 19.446V19.194C141.158 16.422 143.03 14.478 145.64 14.478H145.73C146.99 14.478 148.07 14.928 148.844 15.72V11.04H151.076V24H149.312C149.204 23.694 149.078 23.136 149.042 22.74C148.232 23.64 147.08 24.162 145.73 24.162H145.64ZM146.09 22.38H146.234C147.782 22.38 148.844 21.192 148.844 19.41V19.23C148.844 17.448 147.782 16.26 146.234 16.26H146.09C144.542 16.26 143.48 17.448 143.48 19.23V19.41C143.48 21.192 144.542 22.38 146.09 22.38ZM158.04 24.162C155.196 24.162 153.216 22.254 153.216 19.5V19.248C153.216 16.494 155.25 14.478 158.004 14.478H158.112C160.704 14.478 162.576 16.278 162.576 18.798V20.004H155.43V20.022C155.592 21.372 156.672 22.29 158.184 22.29H158.274C159.426 22.29 160.47 21.768 161.01 21.084L162.252 22.434C161.37 23.496 159.75 24.162 158.202 24.162H158.04ZM155.484 18.51H160.452C160.344 17.178 159.39 16.224 158.022 16.224H158.004C156.708 16.224 155.736 17.124 155.484 18.51ZM164.76 24V14.64H166.524C166.65 15 166.776 15.558 166.794 15.972C167.514 15.144 168.576 14.64 169.872 14.64H170.088V16.8C169.908 16.728 169.692 16.692 169.494 16.692C167.874 16.692 166.992 17.592 166.992 19.032V24H164.76Z" fill="#121417"></path>
  </symbol>
  <symbol fill="none" xmlns="http://www.w3.org/2000/svg" viewBox="0 0 214 40" id="logo-tablet">
    <circle cx="20" cy="20" r="20" fill="#85AA9F"></circle>
    <path fill-rule="evenodd" clip-rule="evenodd" d="M20.4431 19C26.3871 14.517 26.6495 11.8 20.4431 7C14.1184 11.9024 14.9336 14.501 20.4431 19ZM19 20.5569C14.517 14.613 11.8 14.3505 7 20.5569C11.9024 26.8816 14.501 26.0664 19 20.5569ZM34 20.5569C29.517 14.613 26.8 14.3505 22 20.5569C26.9024 26.8816 29.501 26.0664 34 20.5569ZM20.4431 34C26.3871 29.517 26.6495 26.8 20.4431 22C14.1184 26.9024 14.9336 29.501 20.4431 34Z" fill="#FCFCFC"></path>
    <path d="M61.17 28L56.176 12.6H59.212L62.974 24.986H63.172L66.934 12.6H69.97L64.954 28H61.17ZM75.9086 28.198C72.3886 28.198 69.8586 25.8 69.8586 22.434V22.126C69.8586 18.76 72.3886 16.362 75.9086 16.362H76.0846C79.6046 16.362 82.1346 18.76 82.1346 22.126V22.434C82.1346 25.8 79.6046 28.198 76.0846 28.198H75.9086ZM75.9306 26.042H76.0626C77.9326 26.042 79.2966 24.524 79.2966 22.39V22.17C79.2966 20.036 77.9546 18.518 76.0626 18.518H75.9306C74.0606 18.518 72.7186 20.036 72.7186 22.17V22.39C72.7186 24.524 74.0606 26.042 75.9306 26.042ZM89.9113 28.176C86.4573 28.176 84.0813 25.8 84.0813 22.434V22.082C84.0813 18.76 86.5453 16.384 89.8673 16.384H89.9993C92.2213 16.384 93.9153 17.396 94.9273 19.002L92.9033 20.344C92.2873 19.178 91.3413 18.562 90.0433 18.562H89.9773C88.0853 18.562 86.9193 19.904 86.9193 22.17V22.39C86.9193 24.568 88.2173 25.954 90.0873 25.954H90.1973C91.5173 25.954 92.4413 25.25 93.0353 24.172L95.0153 25.646C93.9593 27.208 92.2873 28.176 90.0653 28.176H89.9113ZM100.479 28.22C98.1027 28.22 96.4747 26.834 96.4747 24.81V24.656C96.4747 22.214 98.7847 20.938 103.383 20.938H104.307V20.432C104.307 19.31 103.449 18.584 101.931 18.584H101.865C100.677 18.584 99.2907 19.024 98.1467 19.75L97.0247 17.77C98.4327 16.89 100.193 16.318 102.019 16.318H102.151C104.879 16.318 106.881 17.748 106.881 20.476V25.646C106.881 26.438 107.057 27.252 107.277 28H104.681C104.549 27.648 104.439 27.142 104.373 26.636C103.405 27.604 102.041 28.22 100.479 28.22ZM101.029 26.02C102.305 26.02 103.515 25.47 104.307 24.612V22.698H103.537C100.523 22.698 99.1147 23.314 99.1147 24.524V24.612C99.1147 25.426 99.8847 26.02 101.029 26.02ZM116.713 28.198C115.063 28.198 113.633 27.56 112.665 26.482C112.621 26.988 112.467 27.626 112.335 28H110.179V12.16H112.907V17.858C113.853 16.912 115.173 16.362 116.713 16.362H116.823C119.991 16.362 122.301 18.738 122.301 21.994V22.566C122.301 25.822 119.991 28.198 116.823 28.198H116.713ZM116.097 26.02H116.273C118.165 26.02 119.463 24.568 119.463 22.522V22.038C119.463 19.992 118.165 18.54 116.273 18.54H116.097C114.205 18.54 112.907 19.992 112.907 22.038V22.522C112.907 24.568 114.205 26.02 116.097 26.02ZM125.116 28V12.6H130.99C134.026 12.6 136.116 14.162 136.116 16.45V16.604C136.116 17.924 135.544 18.98 134.268 19.794C135.962 20.498 136.886 21.884 136.886 23.578V23.71C136.886 26.306 134.818 28 131.628 28H125.116ZM127.888 19.068H130.924C132.398 19.068 133.278 18.276 133.278 17.088V16.956C133.278 15.812 132.442 15.086 130.968 15.086H127.888V19.068ZM127.888 25.514H131.474C133.036 25.514 134.004 24.722 134.004 23.468V23.358C134.004 22.06 133.014 21.246 131.43 21.246H127.888V25.514ZM143.377 28.22C140.759 28.22 139.329 26.658 139.329 23.886V16.56H142.057V23.314C142.057 24.942 142.761 25.844 144.279 25.844H144.323C146.127 25.844 147.315 24.634 147.315 22.698V16.56H150.043V28H147.887C147.733 27.56 147.579 26.79 147.557 26.284C146.567 27.472 145.115 28.22 143.421 28.22H143.377ZM154.683 14.778C153.737 14.778 153.077 14.184 153.077 13.326C153.077 12.468 153.737 11.83 154.683 11.83C155.651 11.83 156.333 12.468 156.333 13.326C156.333 14.184 155.651 14.778 154.683 14.778ZM153.341 28V16.56H156.069V28H153.341ZM159.571 28V12.16H162.299V28H159.571ZM170.448 28.198C167.258 28.198 164.97 25.822 164.97 22.434V22.126C164.97 18.738 167.258 16.362 170.448 16.362H170.558C172.098 16.362 173.418 16.912 174.364 17.88V12.16H177.092V28H174.936C174.804 27.626 174.65 26.944 174.606 26.46C173.616 27.56 172.208 28.198 170.558 28.198H170.448ZM170.998 26.02H171.174C173.066 26.02 174.364 24.568 174.364 22.39V22.17C174.364 19.992 173.066 18.54 171.174 18.54H170.998C169.106 18.54 167.808 19.992 167.808 22.17V22.39C167.808 24.568 169.106 26.02 170.998 26.02ZM185.604 28.198C182.128 28.198 179.708 25.866 179.708 22.5V22.192C179.708 18.826 182.194 16.362 185.56 16.362H185.692C188.86 16.362 191.148 18.562 191.148 21.642V23.116H182.414V23.138C182.612 24.788 183.932 25.91 185.78 25.91H185.89C187.298 25.91 188.574 25.272 189.234 24.436L190.752 26.086C189.674 27.384 187.694 28.198 185.802 28.198H185.604ZM182.48 21.29H188.552C188.42 19.662 187.254 18.496 185.582 18.496H185.56C183.976 18.496 182.788 19.596 182.48 21.29ZM193.818 28V16.56H195.974C196.128 17 196.282 17.682 196.304 18.188C197.184 17.176 198.482 16.56 200.066 16.56H200.33V19.2C200.11 19.112 199.846 19.068 199.604 19.068C197.624 19.068 196.546 20.168 196.546 21.928V28H193.818Z" fill="#121417"></path>
  </symbol>
  <symbol fill="none" xmlns="http://www.w3.org/2000/svg" viewBox="0 0 20 20" id="plus">
    <path d="M10 4.16669V15.8334" stroke="#85AA9F" stroke-width="1.5" stroke-linecap="round" stroke-linejoin="round"></path>
    <path d="M4.16663 10H15.8333" stroke="#85AA9F" stroke-width="1.5" stroke-linecap="round" stroke-linejoin="round"></path>
  </symbol>
  <symbol fill="none" xmlns="http://www.w3.org/2000/svg" viewBox="0 0 20 20" id="switch">
    <path d="M3.33337 10H16.6667M16.6667 10L13.3334 6.66669M16.6667 10L13.3334 13.3334" stroke="#85AA9F" stroke-width="1.5" stroke-linecap="round" stroke-linejoin="round"></path>
  </symbol>
  <symbol fill="none" xmlns="http://www.w3.org/2000/svg" viewBox="0 0 24 24" id="switch-right">
    <path d="M20 17H4M4 17L8 13M4 17L8 21" stroke="#85AA9F" stroke-width="1.5" stroke-linecap="round" stroke-linejoin="round"></path>
    <path d="M4 7H20M20 7L16 3M20 7L16 11" stroke="#85AA9F" stroke-width="1.5" stroke-linecap="round" stroke-linejoin="round"></path>
  </symbol>
  <symbol fill="none" xmlns="http://www.w3.org/2000/svg" viewBox="0 0 20 20" id="trash">
    <path d="M7.5 2.5H12.5M8.33333 8.75V12.9167M11.6667 8.75V12.9167" stroke="#121417" stroke-opacity="0.5" stroke-width="1.8" stroke-linecap="round" stroke-linejoin="round"></path>
    <path d="M2.5 5H17.5M15.8333 5L15.2489 13.7661C15.1612 15.0813 15.1174 15.7389 14.8333 16.2375C14.5833 16.6765 14.206 17.0294 13.7514 17.2497C13.235 17.5 12.5759 17.5 11.2578 17.5H8.74221C7.42409 17.5 6.76503 17.5 6.24861 17.2497C5.79396 17.0294 5.41674 16.6765 5.16665 16.2375C4.88259 15.7389 4.83875 15.0813 4.75107 13.7661L4.16667 5" stroke="#121417" stroke-opacity="0.5" stroke-width="1.8" stroke-linecap="round" stroke-linejoin="round"></path>
  </symbol>
</svg>